<svg width="720" height="520" viewBox="0 0 720 520" fill="none" xmlns="http://www.w3.org/2000/svg" role="img" aria-labelledby="title desc">
  <title id="title">Ilustrasi error aplikasi SDS Taman Harapan</title>
  <desc id="desc">Ilustrasi dashboard sekolah yang sedang mengalami gangguan dengan ikon peringatan dan alat perbaikan.</desc>
  <rect width="720" height="520" rx="40" fill="#F8FBFF"/>
  <circle cx="122" cy="112" r="70" fill="#FEE2E2" opacity="0.75"/>
  <circle cx="604" cy="126" r="76" fill="#CFFAFE" opacity="0.8"/>
  <circle cx="596" cy="408" r="58" fill="#FEF3C7" opacity="0.85"/>
  <rect x="155" y="104" width="410" height="286" rx="30" fill="white" stroke="#E2E8F0" stroke-width="4"/>
  <rect x="185" y="136" width="350" height="54" rx="16" fill="#F1F5F9"/>
  <circle cx="212" cy="163" r="8" fill="#EF4444"/>
  <circle cx="238" cy="163" r="8" fill="#F59E0B"/>
  <circle cx="264" cy="163" r="8" fill="#22C55E"/>
  <rect x="190" y="222" width="144" height="112" rx="18" fill="#ECFEFF"/>
  <rect x="360" y="222" width="170" height="24" rx="12" fill="#E2E8F0"/>
  <rect x="360" y="266" width="132" height="16" rx="8" fill="#CBD5E1"/>
  <rect x="360" y="298" width="154" height="16" rx="8" fill="#CBD5E1"/>
  <path d="M262 246L301 314H223L262 246Z" fill="#F97316"/>
  <path d="M262 272V294" stroke="white" stroke-width="8" stroke-linecap="round"/>
  <circle cx="262" cy="306" r="4.5" fill="white"/>
  <text x="360" y="372" text-anchor="middle" font-family="Inter, Arial, sans-serif" font-size="22" font-weight="800" fill="#0F172A">Terjadi Gangguan</text>
  <text x="360" y="402" text-anchor="middle" font-family="Inter, Arial, sans-serif" font-size="14" font-weight="500" fill="#64748B">Aplikasi sedang memulihkan halaman ini.</text>
  <g transform="translate(101 335)">
    <rect x="0" y="54" width="120" height="22" rx="8" fill="#0F172A" opacity="0.1"/>
    <path d="M38 8C48 -2 66 -2 76 8L100 32C110 42 110 60 100 70C90 80 72 80 62 70L38 46C28 36 28 18 38 8Z" fill="#38BDF8"/>
    <rect x="15" y="42" width="62" height="18" rx="9" transform="rotate(-35 15 42)" fill="#0F172A"/>
  </g>
  <g transform="translate(534 319)">
    <rect x="0" y="80" width="100" height="20" rx="8" fill="#0F172A" opacity="0.1"/>
    <rect x="32" y="12" width="38" height="76" rx="12" fill="#FBBF24"/>
    <rect x="22" y="0" width="58" height="22" rx="11" fill="#F59E0B"/>
    <path d="M51 28V58" stroke="white" stroke-width="7" stroke-linecap="round" opacity="0.9"/>
  </g>
  <path d="M119 222C133 208 151 208 165 222" stroke="#EF4444" stroke-width="8" stroke-linecap="round" opacity="0.42"/>
  <path d="M555 210C572 194 594 194 611 210" stroke="#0EA5E9" stroke-width="8" stroke-linecap="round" opacity="0.42"/>
  <path d="M585 84L604 103M604 84L585 103" stroke="#EF4444" stroke-width="8" stroke-linecap="round" opacity="0.8"/>
</svg>
